<svg width="71" height="70" viewBox="0 0 71 70" fill="none" xmlns="http://www.w3.org/2000/svg">
<rect x="0.666016" width="70" height="70" rx="35" fill="#FCE000"/>
<path fill-rule="evenodd" clip-rule="evenodd" d="M44.0032 45.0044V35.0002C44.0035 34.1157 43.6522 33.2674 43.0267 32.6419C42.4014 32.0166 41.553 31.6653 40.6685 31.6655H23.9949C23.1104 31.6653 22.262 32.0166 21.6366 32.6419C21.0112 33.2674 20.6599 34.1157 20.6602 35.0002V45.0044C20.6599 45.8889 21.0112 46.7372 21.6366 47.3627C22.262 47.9881 23.1104 48.3394 23.9949 48.3391H40.6685C42.5102 48.3391 44.0032 46.8461 44.0032 45.0044Z" stroke="black" stroke-width="3" stroke-linecap="round" stroke-linejoin="round"/>
<path d="M20.6602 38.4663H44.0032" stroke="black" stroke-width="3" stroke-linecap="round" stroke-linejoin="round"/>
<path d="M25.9961 31.6653L28.0136 24.1289C28.2425 23.2747 28.8019 22.5468 29.5683 22.1057C30.3347 21.6647 31.2451 21.5467 32.0986 21.7779L48.2053 26.0963C49.0595 26.3253 49.7873 26.8846 50.2285 27.651C50.6695 28.4174 50.7875 29.3279 50.5563 30.1814L47.9718 39.8354C47.512 41.5729 45.7535 42.6294 44.0037 42.2197" stroke="black" stroke-width="3" stroke-linecap="round" stroke-linejoin="round"/>
</svg>
