<svg width="71" height="70" viewBox="0 0 71 70" fill="none" xmlns="http://www.w3.org/2000/svg">
<rect x="0.333984" width="70" height="70" rx="35" fill="#FCE000"/>
<path d="M33.668 23.3335H50.3346" stroke="#050505" stroke-width="3" stroke-linecap="round" stroke-linejoin="round"/>
<path d="M33.668 35H50.3346" stroke="#050505" stroke-width="3" stroke-linecap="round" stroke-linejoin="round"/>
<path d="M33.668 46.6665H50.3346" stroke="#050505" stroke-width="3" stroke-linecap="round" stroke-linejoin="round"/>
<path d="M20.3672 45.8468L23.1222 48.3268L28.6672 43.3335" stroke="#050505" stroke-width="3" stroke-linecap="round" stroke-linejoin="round"/>
<path d="M26.0243 20.9763C27.3261 22.2781 27.3261 24.3886 26.0243 25.6904C24.7226 26.9921 22.612 26.9921 21.3103 25.6904C20.0085 24.3886 20.0085 22.2781 21.3103 20.9763C22.612 19.6746 24.7226 19.6746 26.0243 20.9763Z" stroke="#050505" stroke-width="3" stroke-linecap="round" stroke-linejoin="round"/>
<path d="M26.0243 32.6428C27.3261 33.9445 27.3261 36.0552 26.0243 37.3568C24.7226 38.6587 22.612 38.6587 21.3103 37.3568C20.0085 36.0552 20.0085 33.9445 21.3103 32.6428C22.612 31.3411 24.7226 31.3411 26.0243 32.6428Z" stroke="#050505" stroke-width="3" stroke-linecap="round" stroke-linejoin="round"/>
</svg>
