<svg width="78" height="78" viewBox="0 0 78 78" fill="none" xmlns="http://www.w3.org/2000/svg">
<rect width="78" height="78" rx="39" fill="#DFDFDF"/>
<path d="M35.6309 57.7598C35.6309 56.9525 35.873 56.2663 36.3574 55.7012C36.8418 55.1361 37.528 54.8535 38.416 54.8535C39.3444 54.8535 40.0508 55.1361 40.5352 55.7012C41.0195 56.2663 41.2617 56.9525 41.2617 57.7598C41.2617 58.5671 41.0195 59.2533 40.5352 59.8184C40.0508 60.3835 39.3545 60.666 38.4463 60.666C37.5381 60.666 36.8418 60.3835 36.3574 59.8184C35.873 59.2331 35.6309 58.5469 35.6309 57.7598ZM36.7812 47.9512L36.4482 15.9219H40.4746L40.1113 47.9512H36.7812Z" fill="#050505"/>
</svg>
