<svg width="397" height="37" viewBox="0 0 397 37" fill="none" xmlns="http://www.w3.org/2000/svg">
<g clip-path="url(#clip0_178_6009)">
<path d="M-0.5 0L34.5 0V37C25.6037 37 19.2683 28.4987 18.5519 19.6313C18.2037 15.3212 17.0862 11.1744 14.5 8.5C7.94365 1.72023 -0.5 0 -0.5 0Z" fill="#353535"/>
</g>
<rect width="329" height="37" transform="translate(34)" fill="#353535"/>
<path d="M47.3623 23V10.2031H57.4082V23H55.0439V12.04H49.7266V23H47.3623ZM59.9395 26.6738V13.8506H62.0752L62.1279 14.9404H62.1807C62.3857 14.5771 62.7256 14.2754 63.2002 14.0352C63.6807 13.7891 64.2197 13.666 64.8174 13.666C65.9893 13.666 66.9297 14.0879 67.6387 14.9316C68.3477 15.7754 68.7021 16.8887 68.7021 18.2715V18.5527C68.7021 19.9355 68.3506 21.0518 67.6475 21.9014C66.9443 22.751 66.0156 23.1758 64.8613 23.1758C64.2637 23.1758 63.7363 23.0732 63.2793 22.8682C62.8223 22.6631 62.4736 22.3818 62.2334 22.0244V26.6738H59.9395ZM62.2334 20.0557C62.3799 20.4189 62.6318 20.7383 62.9893 21.0137C63.3467 21.2891 63.7715 21.4268 64.2637 21.4268C64.9785 21.4268 65.5059 21.1748 65.8457 20.6709C66.1914 20.1611 66.3643 19.4873 66.3643 18.6494V18.1836C66.3643 17.3457 66.1914 16.6748 65.8457 16.1709C65.5059 15.667 64.9756 15.415 64.2549 15.415C63.751 15.415 63.3262 15.5498 62.9805 15.8193C62.6348 16.0889 62.3857 16.4023 62.2334 16.7598V20.0557ZM70.0117 18.5615V18.2803C70.0117 16.8623 70.4336 15.7256 71.2773 14.8701C72.127 14.0146 73.2402 13.5869 74.6172 13.5869C75.9941 13.5869 77.1045 14.0146 77.9482 14.8701C78.792 15.7256 79.2139 16.8623 79.2139 18.2803V18.5615C79.2139 19.9795 78.792 21.1162 77.9482 21.9717C77.1045 22.8271 75.9941 23.2549 74.6172 23.2549C73.2402 23.2549 72.127 22.8271 71.2773 21.9717C70.4336 21.1162 70.0117 19.9795 70.0117 18.5615ZM72.3496 18.1836V18.6494C72.3496 19.5283 72.543 20.2227 72.9297 20.7324C73.3164 21.2422 73.8789 21.4971 74.6172 21.4971C75.3496 21.4971 75.9092 21.2422 76.2959 20.7324C76.6826 20.2227 76.876 19.5283 76.876 18.6494V18.1836C76.876 17.3105 76.6797 16.6191 76.2871 16.1094C75.8945 15.5996 75.3379 15.3447 74.6172 15.3447C73.8906 15.3447 73.3311 15.5996 72.9385 16.1094C72.5459 16.6191 72.3496 17.3105 72.3496 18.1836ZM81.0332 13.8506H87.3613V15.582H83.3271V23H81.0332V13.8506ZM88.8027 26.6738V13.8506H90.9385L90.9912 14.9404H91.0439C91.249 14.5771 91.5889 14.2754 92.0635 14.0352C92.5439 13.7891 93.083 13.666 93.6807 13.666C94.8525 13.666 95.793 14.0879 96.502 14.9316C97.2109 15.7754 97.5654 16.8887 97.5654 18.2715V18.5527C97.5654 19.9355 97.2139 21.0518 96.5107 21.9014C95.8076 22.751 94.8789 23.1758 93.7246 23.1758C93.127 23.1758 92.5996 23.0732 92.1426 22.8682C91.6855 22.6631 91.3369 22.3818 91.0967 22.0244V26.6738H88.8027ZM91.0967 20.0557C91.2432 20.4189 91.4951 20.7383 91.8525 21.0137C92.21 21.2891 92.6348 21.4268 93.127 21.4268C93.8418 21.4268 94.3691 21.1748 94.709 20.6709C95.0547 20.1611 95.2275 19.4873 95.2275 18.6494V18.1836C95.2275 17.3457 95.0547 16.6748 94.709 16.1709C94.3691 15.667 93.8389 15.415 93.1182 15.415C92.6143 15.415 92.1895 15.5498 91.8438 15.8193C91.498 16.0889 91.249 16.4023 91.0967 16.7598V20.0557ZM98.9102 20.3105C98.9102 19.3262 99.2939 18.5762 100.062 18.0605C100.829 17.5449 101.802 17.2871 102.979 17.2871H104.887V16.7246C104.887 16.2617 104.767 15.8896 104.526 15.6084C104.292 15.3271 103.882 15.1865 103.296 15.1865C102.71 15.1865 102.291 15.3037 102.039 15.5381C101.793 15.7725 101.67 16.0566 101.67 16.3906V16.5049H99.4199V16.3906C99.4199 15.5938 99.7832 14.9287 100.51 14.3955C101.236 13.8564 102.194 13.5869 103.384 13.5869C104.579 13.5869 105.508 13.8447 106.17 14.3604C106.838 14.876 107.172 15.667 107.172 16.7334V20.9258C107.172 21.3008 107.204 21.6582 107.269 21.998C107.333 22.332 107.421 22.6191 107.532 22.8594V23H105.291C105.215 22.8594 105.147 22.6777 105.089 22.4551C105.03 22.2324 104.992 22.0127 104.975 21.7959C104.781 22.1533 104.436 22.4727 103.938 22.7539C103.439 23.0293 102.815 23.167 102.065 23.167C101.169 23.167 100.419 22.9268 99.8154 22.4463C99.2119 21.9658 98.9102 21.2539 98.9102 20.3105ZM101.204 20.126C101.204 20.5713 101.33 20.9258 101.582 21.1895C101.84 21.4473 102.241 21.5762 102.786 21.5762C103.36 21.5762 103.853 21.3887 104.263 21.0137C104.679 20.6387 104.887 20.208 104.887 19.7217V18.7109H103.313C102.604 18.7109 102.074 18.8369 101.723 19.0889C101.377 19.335 101.204 19.6807 101.204 20.126ZM109.51 23V13.8506H112.63L114.73 19.2383C114.859 19.5781 114.941 19.8184 114.977 19.959C115.018 20.0996 115.053 20.2402 115.082 20.3809H115.161C115.19 20.2402 115.223 20.1025 115.258 19.9678C115.299 19.8271 115.381 19.5898 115.504 19.2559L117.613 13.8506H120.707V23H118.475V17.3223C118.475 16.9707 118.478 16.71 118.483 16.54C118.495 16.3701 118.507 16.2178 118.519 16.083H118.439C118.404 16.2178 118.363 16.3672 118.316 16.5312C118.275 16.6953 118.188 16.9531 118.053 17.3047L115.847 23H114.098L111.874 17.2783C111.763 16.9678 111.681 16.7246 111.628 16.5488C111.581 16.373 111.54 16.2178 111.505 16.083H111.426C111.438 16.2178 111.446 16.3672 111.452 16.5312C111.464 16.6953 111.47 16.9414 111.47 17.2695V23H109.51ZM123.027 23V13.8506H126.147L128.248 19.2383C128.377 19.5781 128.459 19.8184 128.494 19.959C128.535 20.0996 128.57 20.2402 128.6 20.3809H128.679C128.708 20.2402 128.74 20.1025 128.775 19.9678C128.816 19.8271 128.898 19.5898 129.021 19.2559L131.131 13.8506H134.225V23H131.992V17.3223C131.992 16.9707 131.995 16.71 132.001 16.54C132.013 16.3701 132.024 16.2178 132.036 16.083H131.957C131.922 16.2178 131.881 16.3672 131.834 16.5312C131.793 16.6953 131.705 16.9531 131.57 17.3047L129.364 23H127.615L125.392 17.2783C125.28 16.9678 125.198 16.7246 125.146 16.5488C125.099 16.373 125.058 16.2178 125.022 16.083H124.943C124.955 16.2178 124.964 16.3672 124.97 16.5312C124.981 16.6953 124.987 16.9414 124.987 17.2695V23H123.027ZM136.07 20.3105C136.07 19.3262 136.454 18.5762 137.222 18.0605C137.989 17.5449 138.962 17.2871 140.14 17.2871H142.047V16.7246C142.047 16.2617 141.927 15.8896 141.687 15.6084C141.452 15.3271 141.042 15.1865 140.456 15.1865C139.87 15.1865 139.451 15.3037 139.199 15.5381C138.953 15.7725 138.83 16.0566 138.83 16.3906V16.5049H136.58V16.3906C136.58 15.5938 136.943 14.9287 137.67 14.3955C138.396 13.8564 139.354 13.5869 140.544 13.5869C141.739 13.5869 142.668 13.8447 143.33 14.3604C143.998 14.876 144.332 15.667 144.332 16.7334V20.9258C144.332 21.3008 144.364 21.6582 144.429 21.998C144.493 22.332 144.581 22.6191 144.692 22.8594V23H142.451C142.375 22.8594 142.308 22.6777 142.249 22.4551C142.19 22.2324 142.152 22.0127 142.135 21.7959C141.941 22.1533 141.596 22.4727 141.098 22.7539C140.6 23.0293 139.976 23.167 139.226 23.167C138.329 23.167 137.579 22.9268 136.976 22.4463C136.372 21.9658 136.07 21.2539 136.07 20.3105ZM138.364 20.126C138.364 20.5713 138.49 20.9258 138.742 21.1895C139 21.4473 139.401 21.5762 139.946 21.5762C140.521 21.5762 141.013 21.3887 141.423 21.0137C141.839 20.6387 142.047 20.208 142.047 19.7217V18.7109H140.474C139.765 18.7109 139.234 18.8369 138.883 19.0889C138.537 19.335 138.364 19.6807 138.364 20.126ZM151.012 26.6738V13.8506H153.147L153.2 14.9404H153.253C153.458 14.5771 153.798 14.2754 154.272 14.0352C154.753 13.7891 155.292 13.666 155.89 13.666C157.062 13.666 158.002 14.0879 158.711 14.9316C159.42 15.7754 159.774 16.8887 159.774 18.2715V18.5527C159.774 19.9355 159.423 21.0518 158.72 21.9014C158.017 22.751 157.088 23.1758 155.934 23.1758C155.336 23.1758 154.809 23.0732 154.352 22.8682C153.895 22.6631 153.546 22.3818 153.306 22.0244V26.6738H151.012ZM153.306 20.0557C153.452 20.4189 153.704 20.7383 154.062 21.0137C154.419 21.2891 154.844 21.4268 155.336 21.4268C156.051 21.4268 156.578 21.1748 156.918 20.6709C157.264 20.1611 157.437 19.4873 157.437 18.6494V18.1836C157.437 17.3457 157.264 16.6748 156.918 16.1709C156.578 15.667 156.048 15.415 155.327 15.415C154.823 15.415 154.398 15.5498 154.053 15.8193C153.707 16.0889 153.458 16.4023 153.306 16.7598V20.0557ZM161.119 20.3105C161.119 19.3262 161.503 18.5762 162.271 18.0605C163.038 17.5449 164.011 17.2871 165.188 17.2871H167.096V16.7246C167.096 16.2617 166.976 15.8896 166.735 15.6084C166.501 15.3271 166.091 15.1865 165.505 15.1865C164.919 15.1865 164.5 15.3037 164.248 15.5381C164.002 15.7725 163.879 16.0566 163.879 16.3906V16.5049H161.629V16.3906C161.629 15.5938 161.992 14.9287 162.719 14.3955C163.445 13.8564 164.403 13.5869 165.593 13.5869C166.788 13.5869 167.717 13.8447 168.379 14.3604C169.047 14.876 169.381 15.667 169.381 16.7334V20.9258C169.381 21.3008 169.413 21.6582 169.478 21.998C169.542 22.332 169.63 22.6191 169.741 22.8594V23H167.5C167.424 22.8594 167.356 22.6777 167.298 22.4551C167.239 22.2324 167.201 22.0127 167.184 21.7959C166.99 22.1533 166.645 22.4727 166.146 22.7539C165.648 23.0293 165.024 23.167 164.274 23.167C163.378 23.167 162.628 22.9268 162.024 22.4463C161.421 21.9658 161.119 21.2539 161.119 20.3105ZM163.413 20.126C163.413 20.5713 163.539 20.9258 163.791 21.1895C164.049 21.4473 164.45 21.5762 164.995 21.5762C165.569 21.5762 166.062 21.3887 166.472 21.0137C166.888 20.6387 167.096 20.208 167.096 19.7217V18.7109H165.522C164.813 18.7109 164.283 18.8369 163.932 19.0889C163.586 19.335 163.413 19.6807 163.413 20.126ZM171.209 18.5615V18.2803C171.209 16.8506 171.616 15.7109 172.431 14.8613C173.251 14.0117 174.353 13.5869 175.735 13.5869C177.036 13.5869 178.026 13.918 178.706 14.5801C179.386 15.2363 179.743 16.0127 179.778 16.9092L179.787 17.0322H177.555V16.9355C177.555 16.4844 177.405 16.1035 177.106 15.793C176.808 15.4766 176.348 15.3184 175.727 15.3184C175 15.3184 174.455 15.582 174.092 16.1094C173.729 16.6367 173.547 17.3281 173.547 18.1836V18.6494C173.547 19.5049 173.723 20.1992 174.074 20.7324C174.432 21.2656 174.979 21.5322 175.718 21.5322C176.374 21.5322 176.843 21.3682 177.124 21.04C177.411 20.7119 177.555 20.3311 177.555 19.8975V19.8096H179.778V19.9062C179.778 20.8027 179.43 21.585 178.732 22.2529C178.035 22.9209 177.036 23.2549 175.735 23.2549C174.358 23.2549 173.26 22.8301 172.439 21.9805C171.619 21.125 171.209 19.9854 171.209 18.5615ZM181.404 23V13.8506H183.698V21.2686H186.687V13.8506H188.972V21.2686H191.969V13.8506H194.254V23H181.404ZM196.574 23V13.8506H198.851V18.7285C198.851 18.9102 198.848 19.1211 198.842 19.3613C198.836 19.6016 198.824 19.8096 198.807 19.9854H198.886C198.968 19.833 199.059 19.6689 199.158 19.4932C199.258 19.3174 199.369 19.1152 199.492 18.8867L202.489 13.8506H204.792V23H202.516V18.0957C202.516 17.9141 202.519 17.7061 202.524 17.4717C202.53 17.2314 202.539 17.0234 202.551 16.8477H202.445C202.369 17.0059 202.284 17.1729 202.19 17.3486C202.103 17.5186 201.997 17.7148 201.874 17.9375L198.877 23H196.574ZM207.121 26.6738V13.8506H209.257L209.31 14.9404H209.362C209.567 14.5771 209.907 14.2754 210.382 14.0352C210.862 13.7891 211.401 13.666 211.999 13.666C213.171 13.666 214.111 14.0879 214.82 14.9316C215.529 15.7754 215.884 16.8887 215.884 18.2715V18.5527C215.884 19.9355 215.532 21.0518 214.829 21.9014C214.126 22.751 213.197 23.1758 212.043 23.1758C211.445 23.1758 210.918 23.0732 210.461 22.8682C210.004 22.6631 209.655 22.3818 209.415 22.0244V26.6738H207.121ZM209.415 20.0557C209.562 20.4189 209.813 20.7383 210.171 21.0137C210.528 21.2891 210.953 21.4268 211.445 21.4268C212.16 21.4268 212.688 21.1748 213.027 20.6709C213.373 20.1611 213.546 19.4873 213.546 18.6494V18.1836C213.546 17.3457 213.373 16.6748 213.027 16.1709C212.688 15.667 212.157 15.415 211.437 15.415C210.933 15.415 210.508 15.5498 210.162 15.8193C209.816 16.0889 209.567 16.4023 209.415 16.7598V20.0557ZM217.193 18.5615V18.2803C217.193 16.874 217.604 15.7402 218.424 14.8789C219.25 14.0176 220.316 13.5869 221.623 13.5869C222.941 13.5869 223.967 13.9912 224.699 14.7998C225.432 15.6084 225.798 16.7188 225.798 18.1309V18.957H218.688V17.4629H223.53V17.2695C223.53 16.7188 223.366 16.25 223.038 15.8633C222.716 15.4766 222.25 15.2832 221.641 15.2832C220.932 15.2832 220.396 15.5498 220.032 16.083C219.669 16.6162 219.487 17.3135 219.487 18.1748V18.6406C219.487 19.502 219.681 20.1992 220.067 20.7324C220.454 21.2656 221.037 21.5322 221.816 21.5322C222.332 21.5322 222.777 21.4121 223.152 21.1719C223.527 20.9258 223.832 20.6387 224.066 20.3105L225.666 21.3564C225.379 21.8838 224.904 22.335 224.242 22.71C223.58 23.0791 222.78 23.2637 221.843 23.2637C220.378 23.2637 219.235 22.833 218.415 21.9717C217.601 21.1045 217.193 19.9678 217.193 18.5615ZM227.512 13.8506H229.806V17.4629H233.269V13.8506H235.562V23H233.269V19.1943H229.806V23H227.512V13.8506ZM237.883 13.8506H240.177V17.4629H243.64V13.8506H245.934V23H243.64V19.1943H240.177V23H237.883V13.8506ZM247.744 18.5615V18.2803C247.744 16.8623 248.166 15.7256 249.01 14.8701C249.859 14.0146 250.973 13.5869 252.35 13.5869C253.727 13.5869 254.837 14.0146 255.681 14.8701C256.524 15.7256 256.946 16.8623 256.946 18.2803V18.5615C256.946 19.9795 256.524 21.1162 255.681 21.9717C254.837 22.8271 253.727 23.2549 252.35 23.2549C250.973 23.2549 249.859 22.8271 249.01 21.9717C248.166 21.1162 247.744 19.9795 247.744 18.5615ZM250.082 18.1836V18.6494C250.082 19.5283 250.275 20.2227 250.662 20.7324C251.049 21.2422 251.611 21.4971 252.35 21.4971C253.082 21.4971 253.642 21.2422 254.028 20.7324C254.415 20.2227 254.608 19.5283 254.608 18.6494V18.1836C254.608 17.3105 254.412 16.6191 254.02 16.1094C253.627 15.5996 253.07 15.3447 252.35 15.3447C251.623 15.3447 251.063 15.5996 250.671 16.1094C250.278 16.6191 250.082 17.3105 250.082 18.1836ZM258.766 13.8506H265.094V15.582H261.06V23H258.766V13.8506ZM266.025 18.5615V18.2803C266.025 16.8623 266.447 15.7256 267.291 14.8701C268.141 14.0146 269.254 13.5869 270.631 13.5869C272.008 13.5869 273.118 14.0146 273.962 14.8701C274.806 15.7256 275.228 16.8623 275.228 18.2803V18.5615C275.228 19.9795 274.806 21.1162 273.962 21.9717C273.118 22.8271 272.008 23.2549 270.631 23.2549C269.254 23.2549 268.141 22.8271 267.291 21.9717C266.447 21.1162 266.025 19.9795 266.025 18.5615ZM268.363 18.1836V18.6494C268.363 19.5283 268.557 20.2227 268.943 20.7324C269.33 21.2422 269.893 21.4971 270.631 21.4971C271.363 21.4971 271.923 21.2422 272.31 20.7324C272.696 20.2227 272.89 19.5283 272.89 18.6494V18.1836C272.89 17.3105 272.693 16.6191 272.301 16.1094C271.908 15.5996 271.352 15.3447 270.631 15.3447C269.904 15.3447 269.345 15.5996 268.952 16.1094C268.56 16.6191 268.363 17.3105 268.363 18.1836ZM280.879 18.5615V18.2803C280.879 16.8506 281.286 15.7109 282.101 14.8613C282.921 14.0117 284.022 13.5869 285.405 13.5869C286.706 13.5869 287.696 13.918 288.376 14.5801C289.056 15.2363 289.413 16.0127 289.448 16.9092L289.457 17.0322H287.225V16.9355C287.225 16.4844 287.075 16.1035 286.776 15.793C286.478 15.4766 286.018 15.3184 285.396 15.3184C284.67 15.3184 284.125 15.582 283.762 16.1094C283.398 16.6367 283.217 17.3281 283.217 18.1836V18.6494C283.217 19.5049 283.393 20.1992 283.744 20.7324C284.102 21.2656 284.649 21.5322 285.388 21.5322C286.044 21.5322 286.513 21.3682 286.794 21.04C287.081 20.7119 287.225 20.3311 287.225 19.8975V19.8096H289.448V19.9062C289.448 20.8027 289.1 21.585 288.402 22.2529C287.705 22.9209 286.706 23.2549 285.405 23.2549C284.028 23.2549 282.93 22.8301 282.109 21.9805C281.289 21.125 280.879 19.9854 280.879 18.5615ZM290.564 18.5615V18.2803C290.564 16.874 290.975 15.7402 291.795 14.8789C292.621 14.0176 293.688 13.5869 294.994 13.5869C296.312 13.5869 297.338 13.9912 298.07 14.7998C298.803 15.6084 299.169 16.7188 299.169 18.1309V18.957H292.059V17.4629H296.901V17.2695C296.901 16.7188 296.737 16.25 296.409 15.8633C296.087 15.4766 295.621 15.2832 295.012 15.2832C294.303 15.2832 293.767 15.5498 293.403 16.083C293.04 16.6162 292.858 17.3135 292.858 18.1748V18.6406C292.858 19.502 293.052 20.1992 293.438 20.7324C293.825 21.2656 294.408 21.5322 295.188 21.5322C295.703 21.5322 296.148 21.4121 296.523 21.1719C296.898 20.9258 297.203 20.6387 297.438 20.3105L299.037 21.3564C298.75 21.8838 298.275 22.335 297.613 22.71C296.951 23.0791 296.151 23.2637 295.214 23.2637C293.749 23.2637 292.606 22.833 291.786 21.9717C290.972 21.1045 290.564 19.9678 290.564 18.5615ZM300.883 26.6738V13.8506H303.019L303.071 14.9404H303.124C303.329 14.5771 303.669 14.2754 304.144 14.0352C304.624 13.7891 305.163 13.666 305.761 13.666C306.933 13.666 307.873 14.0879 308.582 14.9316C309.291 15.7754 309.646 16.8887 309.646 18.2715V18.5527C309.646 19.9355 309.294 21.0518 308.591 21.9014C307.888 22.751 306.959 23.1758 305.805 23.1758C305.207 23.1758 304.68 23.0732 304.223 22.8682C303.766 22.6631 303.417 22.3818 303.177 22.0244V26.6738H300.883ZM303.177 20.0557C303.323 20.4189 303.575 20.7383 303.933 21.0137C304.29 21.2891 304.715 21.4268 305.207 21.4268C305.922 21.4268 306.449 21.1748 306.789 20.6709C307.135 20.1611 307.308 19.4873 307.308 18.6494V18.1836C307.308 17.3457 307.135 16.6748 306.789 16.1709C306.449 15.667 305.919 15.415 305.198 15.415C304.694 15.415 304.27 15.5498 303.924 15.8193C303.578 16.0889 303.329 16.4023 303.177 16.7598V20.0557ZM311.465 23V13.8506H315.895C317.014 13.8506 317.857 14.0469 318.426 14.4395C318.994 14.832 319.278 15.418 319.278 16.1973C319.278 16.7598 319.117 17.2168 318.795 17.5684C318.473 17.9141 318.036 18.1426 317.485 18.2539V18.2803C318.153 18.3799 318.672 18.6113 319.041 18.9746C319.41 19.332 319.595 19.8066 319.595 20.3984C319.595 21.2188 319.302 21.8574 318.716 22.3145C318.13 22.7715 317.298 23 316.22 23H311.465ZM313.724 17.5947H315.569C316.067 17.5947 316.425 17.4922 316.642 17.2871C316.864 17.082 316.976 16.792 316.976 16.417C316.976 16.0713 316.864 15.8047 316.642 15.6172C316.425 15.4297 316.067 15.3359 315.569 15.3359H313.724V17.5947ZM313.724 21.5059H315.824C316.34 21.5059 316.715 21.3945 316.949 21.1719C317.184 20.9492 317.301 20.6504 317.301 20.2754C317.301 19.9121 317.184 19.6221 316.949 19.4053C316.721 19.1826 316.346 19.0713 315.824 19.0713H313.724V21.5059ZM321.555 23V13.8506H323.831V18.7285C323.831 18.9102 323.828 19.1211 323.822 19.3613C323.816 19.6016 323.805 19.8096 323.787 19.9854H323.866C323.948 19.833 324.039 19.6689 324.139 19.4932C324.238 19.3174 324.35 19.1152 324.473 18.8867L327.47 13.8506H329.772V23H327.496V18.0957C327.496 17.9141 327.499 17.7061 327.505 17.4717C327.511 17.2314 327.52 17.0234 327.531 16.8477H327.426C327.35 17.0059 327.265 17.1729 327.171 17.3486C327.083 17.5186 326.978 17.7148 326.854 17.9375L323.857 23H321.555ZM331.592 18.5615V18.2803C331.592 16.8506 331.999 15.7109 332.813 14.8613C333.634 14.0117 334.735 13.5869 336.118 13.5869C337.419 13.5869 338.409 13.918 339.089 14.5801C339.769 15.2363 340.126 16.0127 340.161 16.9092L340.17 17.0322H337.938V16.9355C337.938 16.4844 337.788 16.1035 337.489 15.793C337.19 15.4766 336.73 15.3184 336.109 15.3184C335.383 15.3184 334.838 15.582 334.475 16.1094C334.111 16.6367 333.93 17.3281 333.93 18.1836V18.6494C333.93 19.5049 334.105 20.1992 334.457 20.7324C334.814 21.2656 335.362 21.5322 336.101 21.5322C336.757 21.5322 337.226 21.3682 337.507 21.04C337.794 20.7119 337.938 20.3311 337.938 19.8975V19.8096H340.161V19.9062C340.161 20.8027 339.812 21.585 339.115 22.2529C338.418 22.9209 337.419 23.2549 336.118 23.2549C334.741 23.2549 333.643 22.8301 332.822 21.9805C332.002 21.125 331.592 19.9854 331.592 18.5615ZM341.312 20.3105C341.312 19.3262 341.696 18.5762 342.464 18.0605C343.231 17.5449 344.204 17.2871 345.382 17.2871H347.289V16.7246C347.289 16.2617 347.169 15.8896 346.929 15.6084C346.694 15.3271 346.284 15.1865 345.698 15.1865C345.112 15.1865 344.693 15.3037 344.441 15.5381C344.195 15.7725 344.072 16.0566 344.072 16.3906V16.5049H341.822V16.3906C341.822 15.5938 342.186 14.9287 342.912 14.3955C343.639 13.8564 344.597 13.5869 345.786 13.5869C346.981 13.5869 347.91 13.8447 348.572 14.3604C349.24 14.876 349.574 15.667 349.574 16.7334V20.9258C349.574 21.3008 349.606 21.6582 349.671 21.998C349.735 22.332 349.823 22.6191 349.935 22.8594V23H347.693C347.617 22.8594 347.55 22.6777 347.491 22.4551C347.433 22.2324 347.395 22.0127 347.377 21.7959C347.184 22.1533 346.838 22.4727 346.34 22.7539C345.842 23.0293 345.218 23.167 344.468 23.167C343.571 23.167 342.821 22.9268 342.218 22.4463C341.614 21.9658 341.312 21.2539 341.312 20.3105ZM343.606 20.126C343.606 20.5713 343.732 20.9258 343.984 21.1895C344.242 21.4473 344.644 21.5762 345.188 21.5762C345.763 21.5762 346.255 21.3887 346.665 21.0137C347.081 20.6387 347.289 20.208 347.289 19.7217V18.7109H345.716C345.007 18.7109 344.477 18.8369 344.125 19.0889C343.779 19.335 343.606 19.6807 343.606 20.126Z" fill="white"/>
<g clip-path="url(#clip1_178_6009)">
<path d="M397.5 0L362.5 0V37C371.396 37 377.732 28.4987 378.448 19.6313C378.796 15.3212 379.914 11.1744 382.5 8.5C389.056 1.72023 397.5 0 397.5 0Z" fill="#353535"/>
</g>
<defs>
<clipPath id="clip0_178_6009">
<rect width="34" height="37" fill="white"/>
</clipPath>
<clipPath id="clip1_178_6009">
<rect width="34" height="37" fill="white" transform="matrix(-1 0 0 1 397 0)"/>
</clipPath>
</defs>
</svg>
