<svg width="52" height="52" viewBox="0 0 52 52" fill="none" xmlns="http://www.w3.org/2000/svg">
<rect width="52" height="52" rx="26" fill="#F5F5F5"/>
<path d="M15.0049 25.9971V25.2061C15.0049 23.167 15.5205 21.6143 16.5518 20.5479C17.583 19.4814 18.9102 18.9482 20.5332 18.9482C22.1035 18.9482 23.3398 19.3643 24.2422 20.1963C25.1445 21.0225 25.5957 22.0771 25.5957 23.3604V23.5713H23.2314V23.3252C23.2314 22.54 23.0059 21.9248 22.5547 21.4795C22.1094 21.0283 21.4297 20.8027 20.5156 20.8027C19.6016 20.8027 18.8574 21.1338 18.2832 21.7959C17.7148 22.458 17.4307 23.5186 17.4307 24.9775V26.2256C17.4307 27.585 17.7119 28.6221 18.2744 29.3369C18.8369 30.0518 19.5928 30.4092 20.542 30.4092C21.4092 30.4092 22.0596 30.1748 22.4932 29.7061C22.9326 29.2373 23.1758 28.6221 23.2227 27.8604L23.2314 27.6406H25.5957V27.8691C25.5254 29.1289 25.0566 30.1748 24.1895 31.0068C23.3223 31.8389 22.1035 32.2549 20.5332 32.2549C18.8926 32.2549 17.5596 31.7188 16.5342 30.6465C15.5146 29.5684 15.0049 28.0186 15.0049 25.9971ZM35.29 32L30.4121 25.9004L32.2051 24.5996L38.208 32H35.29ZM28.7598 24.4854H30.7549L35.1846 19.2031H37.751L31.6689 26.3311H28.7598V24.4854ZM27.5029 32V19.2031H29.8672V32H27.5029Z" fill="#353535"/>
</svg>
