<svg width="40" height="40" viewBox="0 0 40 40" fill="none" xmlns="http://www.w3.org/2000/svg">
<path d="M15.5955 10.2267C17.5488 6.74333 18.5272 5 19.9988 5C21.4705 5 22.4488 6.74167 24.4038 10.2267C24.8355 10.9967 25.2105 11.9567 25.9455 12.4833C26.6455 12.9867 27.6222 13.0367 28.4488 13.1867C32.3755 13.9017 34.3388 14.2583 34.8522 15.615C34.8899 15.715 34.9216 15.8161 34.9472 15.9183C35.2938 17.33 33.8938 18.5533 31.0872 21.44C30.2088 22.3417 29.8105 22.77 29.6338 23.355C29.4722 23.8967 29.5505 24.4833 29.7072 25.6567C30.2455 29.69 30.5105 31.9267 29.3572 32.84C27.2905 34.4733 23.9572 31.6033 22.0922 30.7417C21.0622 30.2667 20.5488 30 19.9988 30C19.4488 30 18.9355 30.2667 17.9055 30.7417C16.0388 31.6033 12.7072 34.475 10.6422 32.8383C9.48716 31.9267 9.76216 29.69 10.3005 25.6567C10.4572 24.4833 10.5338 23.8967 10.3722 23.355C10.1972 22.77 9.79716 22.3433 8.91883 21.4383C6.11216 18.555 4.70383 17.33 5.05216 15.9183C5.07549 15.815 5.1066 15.7139 5.14549 15.615C5.65883 14.2583 7.62216 13.9017 11.5488 13.1867C12.3755 13.0367 13.3538 12.9867 14.0522 12.4833C14.7872 11.9567 15.1622 10.995 15.5955 10.2267Z" fill="#FA8900"/>
</svg>
