<svg width="208" height="44" viewBox="0 0 208 44" fill="none" xmlns="http://www.w3.org/2000/svg">
<g clip-path="url(#clip0_24_1442)">
<path d="M22.1137 18.5653C21.7552 18.7244 21.4821 18.9561 21.2919 19.2576C21.1016 19.5591 21.0078 19.9165 21.0078 20.3296C21.0078 20.7428 21.1016 21.1001 21.2919 21.4017C21.4821 21.7032 21.7552 21.9321 22.1137 22.094C22.4722 22.2531 22.8941 22.3341 23.385 22.3341C23.8758 22.3341 24.2978 22.2531 24.6563 22.094C25.0148 21.9349 25.2878 21.7032 25.4781 21.4017C25.6683 21.1001 25.7621 20.7428 25.7621 20.3296C25.7621 19.9165 25.6656 19.5591 25.4781 19.2576C25.2878 18.9561 25.0148 18.7272 24.6563 18.5653C24.2978 18.4062 23.8731 18.3252 23.385 18.3252C22.8968 18.3252 22.4722 18.4062 22.1137 18.5653Z" fill="white"/>
<path d="M50.8275 18.1152L49.7217 20.8679H51.9334L50.8275 18.1152Z" fill="white"/>
<path d="M61.5106 10.5694V0H0V44H88.5637V29.7204H112.324V10.5694H61.5106ZM100.105 12.8083C100.306 13.2662 100.648 13.4951 101.125 13.4951C101.602 13.4951 101.941 13.2662 102.145 12.8083H104.572C104.365 13.6347 103.966 14.2433 103.37 14.6257C102.774 15.011 102.027 15.2036 101.125 15.2036C100.223 15.2036 99.4732 15.011 98.8803 14.6257C98.2847 14.2405 97.8848 13.6347 97.678 12.8083H100.105ZM63.6451 22.1354V15.7229H66.7779V22.1354H69.69V15.7229H72.8228V24.9383H57.603V15.7201H60.733V22.1326H63.6451V22.1354ZM49.3216 3.54267H54.6246C55.4382 3.54267 56.1386 3.67946 56.7315 3.95305C57.3217 4.22663 57.7712 4.61747 58.0828 5.11998C58.3917 5.62249 58.5461 6.21433 58.5461 6.8955C58.5461 7.57668 58.3917 8.16852 58.0828 8.67102C57.7739 9.17353 57.3244 9.56437 56.7315 9.83795C56.1414 10.1115 55.4382 10.2483 54.6246 10.2483H52.4516V12.7553H49.3188V3.54267H49.3216ZM52.9149 15.7201L56.908 24.9355H53.5712L52.9452 23.3861H48.7094L48.0834 24.9355H44.7465L48.7397 15.7201H52.9149ZM38.6548 3.54267H48.3398V6.36787H45.0637V12.7581H41.9309V6.36787H38.6548V3.54267ZM38.5941 24.9355H35.5L33.0125 18.4978V24.9355H30.0397V15.7201H34.8822L37.0608 21.7278L39.2146 15.7201H44.0571V24.9355H41.0843V18.4671L38.5969 24.9355H38.5941ZM27.5247 3.54267H30.6547V6.65262H34.5375V3.54267H37.6675V12.7581H34.5375V9.4527H30.6547V12.7581H27.5247V3.54267ZM28.2306 17.7971C28.6884 18.5257 28.9201 19.3688 28.9201 20.3292C28.9201 21.2895 28.6912 22.1326 28.2306 22.8612C27.7701 23.5899 27.122 24.1566 26.2865 24.5558C25.4481 24.9578 24.4829 25.1588 23.3854 25.1588C22.2878 25.1588 21.3226 24.9578 20.4842 24.5558C19.6459 24.1538 18.9978 23.5899 18.5401 22.8612C18.0795 22.1326 17.8506 21.2895 17.8506 20.3292C17.8506 19.3688 18.0795 18.5257 18.5401 17.7971C18.9978 17.0685 19.6487 16.5017 20.4842 16.1025C21.3226 15.7005 22.2878 15.4995 23.3854 15.4995C24.4829 15.4995 25.4481 15.7005 26.2865 16.1025C27.1248 16.5045 27.7729 17.0685 28.2306 17.7971ZM17.4259 3.54267H26.1761V6.04962H20.738L20.9007 7.05742H25.7873V9.24332H20.9007L20.738 10.2511H26.2368V12.7581H17.4259L18.0933 8.15177L17.4259 3.54546V3.54267ZM4.99696 3.54267H8.12972V9.95521H11.8692V3.54267H15.0019V9.95521H16.5545V14.5866H13.6176V12.7553H4.99696V3.54267ZM14.2105 31.8393H10.9343V38.2296H7.80155V31.8393H4.5254V29.0141H14.2105V31.8393ZM7.47338 24.9355V26.7668H4.53643V22.1354H5.725C6.00353 21.7641 6.21035 21.2783 6.34824 20.6865C6.48337 20.0919 6.55231 19.3688 6.55231 18.5118C6.55231 17.7664 6.48888 16.8367 6.35927 15.7229H15.7272V22.1354H17.2798V26.7668H14.3428V24.9355H7.47338ZM23.7604 38.2296H14.9495L15.6169 33.6232L14.9495 29.0169H23.6997V31.5239H18.2615L18.4242 32.5317H23.3109V34.7176H18.4242L18.2615 35.7254H23.7604V38.2323V38.2296ZM31.8322 38.2296L29.8963 35.6361L27.9494 38.2296H24.1492L28.0018 33.4502L24.3781 29.0141H28.2996L29.957 31.2252L31.5785 29.0141H35.4503L31.857 33.4502L35.6792 38.2296H31.8322ZM46.3846 38.2296H43.2519V34.9242H39.369V38.2296H36.2363V29.0141H39.369V32.1241H43.2519V29.0141H46.3846V38.2296ZM58.6068 38.2296H55.4988V32.0739L51.809 38.2296H47.8407V29.0141H50.9486V34.9744L54.5171 29.0141H58.6068V38.2296ZM66.7641 38.2296L65.1811 35.3485L62.906 38.2296H60.0656V29.0141H63.1735V34.028L66.913 29.0141H70.1891L67.1557 32.8611L70.3105 38.2296H66.7668H66.7641ZM81.6915 38.2296H78.5836V32.0739L74.8938 38.2296H70.9255V29.0141H74.0334V34.9744L77.6019 29.0141H81.6915V38.2296ZM84.4217 24.9355H81.2917V21.6301H77.4088V24.9355H74.2788V15.7201H77.4088V18.83H81.2917V15.7201H84.4217V24.9355ZM94.4459 24.9355H85.6351L86.3024 20.3292L85.6351 15.7229H94.3853V18.2298H88.9471L89.1098 19.2376H93.9964V21.4235H89.1098L88.9471 22.4313H94.4459V24.9383V24.9355ZM106.497 24.9355H103.389V18.7798L99.6994 24.9355H95.731V15.7201H98.839V21.6804L102.407 15.7201H106.497V24.9355Z" fill="white"/>
<path d="M9.43958 19.1735C9.43958 20.4884 9.25757 21.4822 8.89355 22.1606H12.5944V18.4756H9.42579C9.43407 18.6403 9.43682 18.872 9.43682 19.1763L9.43958 19.1735Z" fill="white"/>
<path d="M55.1401 7.5519C55.3083 7.39836 55.3911 7.1806 55.3911 6.89864C55.3911 6.61668 55.3083 6.39893 55.1401 6.24538C54.9719 6.09184 54.732 6.01367 54.4203 6.01367H52.4541V7.78361H54.4203C54.732 7.78361 54.9719 7.70544 55.1401 7.5519Z" fill="white"/>
<path d="M117.569 10.5135H131.601L142.124 30.4015V10.5135H152.691V43.8073H139.099L128.093 23.1431V43.8073H117.569V10.5135ZM157.54 15.0863C158.637 13.5034 160.181 12.2778 162.178 11.4124C164.175 10.547 166.48 10.1143 169.094 10.1143C171.709 10.1143 174.017 10.547 176.011 11.4124C178.007 12.2778 179.552 13.5034 180.649 15.0863C181.747 16.6692 182.293 18.5033 182.293 20.5915C182.293 22.6797 181.741 24.4692 180.638 26.0521C179.535 27.635 177.985 28.8605 175.989 29.726C173.992 30.5914 171.695 31.0241 169.094 31.0241C166.494 31.0241 164.172 30.5914 162.178 29.726C160.181 28.8605 158.637 27.6406 157.54 26.0632C156.442 24.4887 155.896 22.663 155.896 20.5915C155.896 18.5201 156.445 16.6692 157.54 15.0863ZM179.223 33.598V39.2345H158.965V33.598H179.223ZM166.331 23.2101C166.974 23.8327 167.895 24.1426 169.094 24.1426C170.294 24.1426 171.215 23.8327 171.858 23.2101C172.5 22.5876 172.823 21.7166 172.823 20.5915C172.823 19.4665 172.497 18.5508 171.847 17.9282C171.196 17.3057 170.277 16.9958 169.094 16.9958C167.911 16.9958 166.974 17.3057 166.331 17.9282C165.689 18.5508 165.366 19.4385 165.366 20.5915C165.366 21.7445 165.689 22.5904 166.331 23.2101Z" fill="#FCE000"/>
<path d="M208 43.3134H196.776V19.5588L187.188 21.2589V12.4455L199.694 9.7627H208.003V43.3134H208Z" fill="#FCE000"/>
<path d="M71.5996 1.73145V3.15895H70.0155V6.07662H68.0529V3.15895H66.4688V1.73145H71.6016H71.5996Z" fill="white"/>
<path d="M73.2018 5.9213C72.7632 5.72744 72.4188 5.4533 72.1684 5.10083C71.9181 4.74836 71.7939 4.34302 71.7939 3.8848C71.7939 3.42659 71.9161 3.03888 72.1584 2.69032C72.4028 2.34177 72.7352 2.0735 73.1598 1.8816C73.5843 1.6897 74.059 1.59375 74.5837 1.59375C75.1084 1.59375 75.595 1.70341 75.9855 1.92468C76.3761 2.14595 76.6745 2.45926 76.8807 2.86656C77.087 3.27386 77.1891 3.75361 77.1891 4.30777H73.8006C74.0009 4.71115 74.4775 4.91284 75.2265 4.91284C75.557 4.91284 75.8794 4.87172 76.1958 4.78752C76.5122 4.70528 76.8086 4.58387 77.081 4.42918V5.51792C76.7566 5.7431 76.3841 5.91347 75.9655 6.03291C75.5469 6.15236 75.1204 6.21306 74.6838 6.21306C74.1351 6.21306 73.6404 6.11516 73.2018 5.9213ZM75.4528 3.42268C75.3867 3.22294 75.2806 3.07217 75.1384 2.97034C74.9962 2.86852 74.818 2.8176 74.6077 2.8176C74.3974 2.8176 74.2052 2.87243 74.059 2.98013C73.9128 3.08783 73.8086 3.23665 73.7506 3.42268H75.4548H75.4528Z" fill="white"/>
<path d="M78.9085 3.88543L77.1962 1.73145H79.3451L80.1802 2.75557L81.0073 1.73145H83.1482L81.3858 3.86585L83.2643 6.07662H81.0454L80.1482 4.98396L79.267 6.07662H77.0801L78.9085 3.88543Z" fill="white"/>
<path d="M85.4665 1.73145V3.13741H87.1207V1.73145H89.0833V6.07662H87.1207V4.54925H85.4665V6.07662H83.5039V1.73145H85.4665Z" fill="white"/>
<path d="M89.8262 1.73145H91.7588V4.2751L93.2588 1.73145H95.7701V6.07662H93.8375V3.41351L92.2614 6.07662H89.8262V1.73145Z" fill="white"/>
<path d="M96.5137 1.73145H98.4763V3.74836L100.147 1.73145H102.163L100.645 3.40959L102.271 6.07662H100.092L99.3735 4.81164L98.23 6.07662H96.5137V1.73145Z" fill="white"/>
<path d="M106.106 5.32406C105.898 5.60799 105.641 5.82731 105.337 5.982C105.032 6.13474 104.694 6.21306 104.32 6.21306C103.889 6.21306 103.508 6.11711 103.18 5.92521C102.85 5.73331 102.595 5.46309 102.413 5.11453C102.231 4.76598 102.141 4.3626 102.141 3.90634C102.141 3.45009 102.231 3.04279 102.413 2.69424C102.595 2.34373 102.85 2.0735 103.18 1.8816C103.51 1.6897 103.889 1.59375 104.32 1.59375C104.694 1.59375 105.032 1.67012 105.337 1.8209C105.641 1.97168 105.898 2.18903 106.104 2.47101L106.212 1.73082H108.253L107.944 3.90047L108.253 6.07795H106.212L106.104 5.32602L106.106 5.32406ZM104.225 4.34889C104.295 4.48009 104.396 4.58191 104.522 4.65632C104.648 4.73073 104.792 4.76794 104.954 4.76794C105.117 4.76794 105.287 4.73073 105.447 4.65436C105.607 4.578 105.749 4.47617 105.868 4.34497C105.988 4.21378 106.072 4.06887 106.12 3.90634C106.072 3.74186 105.986 3.595 105.868 3.46184C105.747 3.32869 105.607 3.2249 105.447 3.15049C105.287 3.07412 105.123 3.03692 104.954 3.03692C104.786 3.03692 104.648 3.07412 104.522 3.15049C104.396 3.22686 104.297 3.33064 104.225 3.46184C104.155 3.595 104.119 3.74186 104.119 3.90634C104.119 4.07083 104.155 4.21769 104.225 4.34889Z" fill="white"/>
<path d="M111.084 2.69824V4.19428H108.905V2.69824H111.084Z" fill="white"/>
<path d="M113.123 5.8745C112.662 5.64931 112.312 5.3223 112.071 4.89346C111.831 4.46462 111.711 3.94962 111.711 3.34846C111.711 2.74731 111.829 2.24014 112.063 1.80739C112.298 1.37463 112.642 1.03195 113.095 0.781308C113.547 0.530663 114.1 0.377926 114.749 0.325056C115.306 0.281976 115.728 0.244771 116.019 0.215398C116.309 0.186026 116.537 0.154695 116.708 0.123364C116.876 0.0920338 117.04 0.0509123 117.2 0V1.54108C116.994 1.60961 116.74 1.66053 116.435 1.69577C116.131 1.73102 115.694 1.75843 115.121 1.77606C114.525 1.79564 114.082 1.919 113.796 2.14223C113.509 2.36742 113.353 2.70423 113.325 3.15461C113.417 2.95487 113.565 2.7806 113.768 2.63178C113.97 2.481 114.212 2.36547 114.493 2.28518C114.773 2.20294 115.071 2.16182 115.386 2.16182C115.826 2.16182 116.215 2.2421 116.553 2.40267C116.892 2.56324 117.152 2.79235 117.34 3.08607C117.527 3.38175 117.621 3.72052 117.621 4.10236C117.621 4.52337 117.505 4.89346 117.27 5.21068C117.038 5.52986 116.708 5.77463 116.279 5.94891C115.85 6.12319 115.356 6.20935 114.791 6.20935C114.142 6.20935 113.587 6.09577 113.127 5.87058L113.123 5.8745ZM113.946 4.46266C114.056 4.57428 114.188 4.66044 114.342 4.72114C114.497 4.7838 114.661 4.81317 114.833 4.81317C115.081 4.81317 115.276 4.75247 115.42 4.62911C115.564 4.5077 115.636 4.34126 115.636 4.13173C115.636 3.92221 115.564 3.75772 115.42 3.63436C115.276 3.51295 115.079 3.45029 114.833 3.45029C114.599 3.45029 114.381 3.50708 114.18 3.62261C113.98 3.73814 113.826 3.89088 113.72 4.08474C113.762 4.22377 113.836 4.34713 113.946 4.45875V4.46266Z" fill="white"/>
<path d="M122.918 1.73145V3.15895H121.334V6.07662H119.371V3.15895H117.787V1.73145H122.92H122.918Z" fill="white"/>
<path d="M123.07 6.02938C122.909 5.93735 122.781 5.81203 122.687 5.65537C122.593 5.49872 122.547 5.32444 122.547 5.13254C122.547 4.94064 122.593 4.76637 122.687 4.60971C122.781 4.45306 122.909 4.32774 123.07 4.2357C123.23 4.14367 123.408 4.09863 123.604 4.09863C123.801 4.09863 123.979 4.14367 124.139 4.2357C124.299 4.32774 124.427 4.45306 124.522 4.60971C124.616 4.76637 124.662 4.9426 124.662 5.13254C124.662 5.32249 124.614 5.49872 124.522 5.65537C124.427 5.81203 124.299 5.93735 124.139 6.02938C123.979 6.12142 123.799 6.16646 123.604 6.16646C123.41 6.16646 123.23 6.12142 123.07 6.02938Z" fill="white"/>
<path d="M127.207 1.73082V2.39268C127.413 2.13616 127.663 1.93838 127.956 1.80131C128.25 1.66424 128.575 1.5957 128.929 1.5957C129.36 1.5957 129.74 1.69165 130.069 1.88355C130.399 2.07545 130.653 2.34568 130.836 2.69619C131.018 3.0467 131.108 3.45009 131.108 3.9083C131.108 4.36651 131.018 4.76597 130.836 5.11649C130.653 5.46504 130.399 5.73527 130.069 5.92717C129.738 6.11907 129.36 6.21502 128.929 6.21502C128.571 6.21502 128.246 6.14452 127.954 6.00549C127.661 5.86646 127.413 5.66673 127.207 5.4063V7.3253H125.244V1.73082H127.207ZM127.383 4.34497C127.503 4.47617 127.643 4.57995 127.804 4.65436C127.964 4.73073 128.128 4.76793 128.296 4.76793C128.464 4.76793 128.603 4.73073 128.729 4.65632C128.855 4.58191 128.953 4.48008 129.025 4.34889C129.095 4.21769 129.131 4.07083 129.131 3.90634C129.131 3.74185 129.095 3.59499 129.025 3.46184C128.955 3.32868 128.855 3.2249 128.729 3.15049C128.603 3.07412 128.458 3.03691 128.296 3.03691C128.134 3.03691 127.964 3.07412 127.804 3.15049C127.643 3.22686 127.501 3.33064 127.383 3.46184C127.263 3.59499 127.179 3.74185 127.131 3.90634C127.179 4.06691 127.265 4.21377 127.383 4.34497Z" fill="white"/>
<path d="M135.354 5.40486C135.156 5.66529 134.915 5.86307 134.631 6.00405C134.349 6.14308 134.03 6.21358 133.676 6.21358C133.251 6.21358 132.877 6.11763 132.554 5.92573C132.232 5.73383 131.984 5.4636 131.807 5.11505C131.631 4.76649 131.543 4.36311 131.543 3.90686C131.543 3.45061 131.631 3.04331 131.807 2.69475C131.984 2.34424 132.234 2.07401 132.554 1.88211C132.877 1.69021 133.249 1.59426 133.676 1.59426C134.026 1.59426 134.343 1.6628 134.629 1.79987C134.913 1.93694 135.156 2.13472 135.354 2.39124V0.256836H137.287V2.3932C137.485 2.13668 137.727 1.9389 138.012 1.80183C138.296 1.66476 138.614 1.59622 138.965 1.59622C139.389 1.59622 139.764 1.69217 140.086 1.88407C140.409 2.07597 140.657 2.3462 140.833 2.69671C141.01 3.04722 141.098 3.45061 141.098 3.90882C141.098 4.36703 141.01 4.76649 140.833 5.117C140.657 5.46556 140.407 5.73579 140.084 5.92769C139.762 6.11959 139.387 6.21554 138.965 6.21554C138.612 6.21554 138.294 6.14504 138.01 6.00601C137.725 5.86698 137.485 5.66725 137.287 5.40681V7.32582H135.354V5.40681V5.40486ZM133.62 4.35136C133.686 4.48256 133.778 4.58438 133.896 4.65879C134.014 4.7332 134.152 4.77041 134.309 4.77041C134.465 4.77041 134.629 4.7332 134.783 4.65684C134.937 4.58047 135.072 4.47864 135.186 4.34745C135.3 4.21625 135.38 4.07134 135.43 3.90882C135.382 3.74433 135.3 3.59747 135.186 3.46431C135.072 3.33116 134.937 3.22737 134.783 3.15296C134.629 3.0766 134.471 3.03939 134.309 3.03939C134.146 3.03939 134.014 3.0766 133.896 3.15101C133.778 3.22542 133.686 3.3292 133.62 3.4604C133.554 3.59355 133.522 3.74237 133.522 3.90882C133.522 4.07526 133.554 4.22016 133.62 4.35136ZM137.451 4.34745C137.565 4.47864 137.697 4.58243 137.853 4.65684C138.008 4.7332 138.166 4.77041 138.328 4.77041C138.49 4.77041 138.622 4.7332 138.743 4.65879C138.861 4.58438 138.953 4.48256 139.019 4.35136C139.085 4.22016 139.117 4.0733 139.117 3.90882C139.117 3.74433 139.085 3.59355 139.019 3.4604C138.953 3.32724 138.861 3.22542 138.743 3.15101C138.624 3.0766 138.486 3.03939 138.328 3.03939C138.17 3.03939 138.008 3.0766 137.853 3.15296C137.699 3.22933 137.565 3.33312 137.451 3.46431C137.337 3.59747 137.257 3.74433 137.207 3.90882C137.255 4.06939 137.337 4.21625 137.451 4.34745Z" fill="white"/>
</g>
<defs>
<clipPath id="clip0_24_1442">
<rect width="208" height="44" fill="white"/>
</clipPath>
</defs>
</svg>
