<svg width="208" height="44" viewBox="0 0 208 44" fill="none" xmlns="http://www.w3.org/2000/svg">
<g clip-path="url(#clip0_2002_6121)">
<path d="M22.1137 18.5648C21.7552 18.7239 21.4821 18.9556 21.2919 19.2571C21.1016 19.5586 21.0078 19.916 21.0078 20.3291C21.0078 20.7423 21.1016 21.0997 21.2919 21.4012C21.4821 21.7027 21.7552 21.9316 22.1137 22.0935C22.4722 22.2526 22.8941 22.3336 23.385 22.3336C23.8758 22.3336 24.2978 22.2526 24.6563 22.0935C25.0148 21.9344 25.2878 21.7027 25.4781 21.4012C25.6683 21.0997 25.7621 20.7423 25.7621 20.3291C25.7621 19.916 25.6656 19.5586 25.4781 19.2571C25.2878 18.9556 25.0148 18.7267 24.6563 18.5648C24.2978 18.4057 23.8731 18.3247 23.385 18.3247C22.8968 18.3247 22.4722 18.4057 22.1137 18.5648Z" fill="#050505"/>
<path d="M50.8285 18.1152L49.7227 20.8679H51.9343L50.8285 18.1152Z" fill="#050505"/>
<path d="M61.5106 10.5694V0H0V44H88.5637V29.7204H112.324V10.5694H61.5106ZM100.105 12.8083C100.306 13.2662 100.648 13.4951 101.125 13.4951C101.602 13.4951 101.941 13.2662 102.145 12.8083H104.572C104.365 13.6347 103.966 14.2433 103.37 14.6257C102.774 15.011 102.027 15.2036 101.125 15.2036C100.223 15.2036 99.4732 15.011 98.8803 14.6257C98.2847 14.2405 97.8848 13.6347 97.678 12.8083H100.105ZM63.6451 22.1354V15.7229H66.7779V22.1354H69.69V15.7229H72.8228V24.9383H57.603V15.7201H60.733V22.1326H63.6451V22.1354ZM49.3216 3.54267H54.6246C55.4382 3.54267 56.1386 3.67946 56.7315 3.95305C57.3217 4.22663 57.7712 4.61747 58.0828 5.11998C58.3917 5.62249 58.5461 6.21433 58.5461 6.8955C58.5461 7.57668 58.3917 8.16852 58.0828 8.67102C57.7739 9.17353 57.3244 9.56437 56.7315 9.83795C56.1414 10.1115 55.4382 10.2483 54.6246 10.2483H52.4516V12.7553H49.3188V3.54267H49.3216ZM52.9149 15.7201L56.908 24.9355H53.5712L52.9452 23.3861H48.7094L48.0834 24.9355H44.7465L48.7397 15.7201H52.9149ZM38.6548 3.54267H48.3398V6.36787H45.0637V12.7581H41.9309V6.36787H38.6548V3.54267ZM38.5941 24.9355H35.5L33.0125 18.4978V24.9355H30.0397V15.7201H34.8822L37.0608 21.7278L39.2146 15.7201H44.0571V24.9355H41.0843V18.4671L38.5969 24.9355H38.5941ZM27.5247 3.54267H30.6547V6.65262H34.5375V3.54267H37.6675V12.7581H34.5375V9.4527H30.6547V12.7581H27.5247V3.54267ZM28.2306 17.7971C28.6884 18.5257 28.9201 19.3688 28.9201 20.3292C28.9201 21.2895 28.6912 22.1326 28.2306 22.8612C27.7701 23.5899 27.122 24.1566 26.2865 24.5558C25.4481 24.9578 24.4829 25.1588 23.3854 25.1588C22.2878 25.1588 21.3226 24.9578 20.4842 24.5558C19.6459 24.1538 18.9978 23.5899 18.5401 22.8612C18.0795 22.1326 17.8506 21.2895 17.8506 20.3292C17.8506 19.3688 18.0795 18.5257 18.5401 17.7971C18.9978 17.0685 19.6487 16.5017 20.4842 16.1025C21.3226 15.7005 22.2878 15.4995 23.3854 15.4995C24.4829 15.4995 25.4481 15.7005 26.2865 16.1025C27.1248 16.5045 27.7729 17.0685 28.2306 17.7971ZM17.4259 3.54267H26.1761V6.04962H20.738L20.9007 7.05742H25.7873V9.24332H20.9007L20.738 10.2511H26.2368V12.7581H17.4259L18.0933 8.15177L17.4259 3.54546V3.54267ZM4.99696 3.54267H8.12972V9.95521H11.8692V3.54267H15.0019V9.95521H16.5545V14.5866H13.6176V12.7553H4.99696V3.54267ZM14.2105 31.8393H10.9343V38.2296H7.80155V31.8393H4.5254V29.0141H14.2105V31.8393ZM7.47338 24.9355V26.7668H4.53643V22.1354H5.725C6.00353 21.7641 6.21035 21.2783 6.34824 20.6865C6.48337 20.0919 6.55231 19.3688 6.55231 18.5118C6.55231 17.7664 6.48888 16.8367 6.35927 15.7229H15.7272V22.1354H17.2798V26.7668H14.3428V24.9355H7.47338ZM23.7604 38.2296H14.9495L15.6169 33.6232L14.9495 29.0169H23.6997V31.5239H18.2615L18.4242 32.5317H23.3109V34.7176H18.4242L18.2615 35.7254H23.7604V38.2323V38.2296ZM31.8322 38.2296L29.8963 35.6361L27.9494 38.2296H24.1492L28.0018 33.4502L24.3781 29.0141H28.2996L29.957 31.2252L31.5785 29.0141H35.4503L31.857 33.4502L35.6792 38.2296H31.8322ZM46.3846 38.2296H43.2519V34.9242H39.369V38.2296H36.2363V29.0141H39.369V32.1241H43.2519V29.0141H46.3846V38.2296ZM58.6068 38.2296H55.4988V32.0739L51.809 38.2296H47.8407V29.0141H50.9486V34.9744L54.5171 29.0141H58.6068V38.2296ZM66.7641 38.2296L65.1811 35.3485L62.906 38.2296H60.0656V29.0141H63.1735V34.028L66.913 29.0141H70.1891L67.1557 32.8611L70.3105 38.2296H66.7668H66.7641ZM81.6915 38.2296H78.5836V32.0739L74.8938 38.2296H70.9255V29.0141H74.0334V34.9744L77.6019 29.0141H81.6915V38.2296ZM84.4217 24.9355H81.2917V21.6301H77.4088V24.9355H74.2788V15.7201H77.4088V18.83H81.2917V15.7201H84.4217V24.9355ZM94.4459 24.9355H85.6351L86.3024 20.3292L85.6351 15.7229H94.3853V18.2298H88.9471L89.1098 19.2376H93.9964V21.4235H89.1098L88.9471 22.4313H94.4459V24.9383V24.9355ZM106.497 24.9355H103.389V18.7798L99.6994 24.9355H95.731V15.7201H98.839V21.6804L102.407 15.7201H106.497V24.9355Z" fill="#050505"/>
<path d="M9.44056 19.1735C9.44056 20.4884 9.25855 21.4822 8.89453 22.1606H12.5954V18.4756H9.42677C9.43504 18.6403 9.4378 18.872 9.4378 19.1763L9.44056 19.1735Z" fill="#050505"/>
<path d="M55.1391 7.55141C55.3073 7.39787 55.3901 7.18011 55.3901 6.89815C55.3901 6.61619 55.3073 6.39844 55.1391 6.24489C54.9709 6.09135 54.731 6.01318 54.4194 6.01318H52.4531V7.78312H54.4194C54.731 7.78312 54.9709 7.70495 55.1391 7.55141Z" fill="#050505"/>
<path d="M117.57 10.5135H131.602L142.125 30.4015V10.5135H152.692V43.8073H139.1L128.094 23.1431V43.8073H117.57V10.5135ZM157.541 15.0863C158.638 13.5034 160.182 12.2778 162.179 11.4124C164.176 10.547 166.481 10.1143 169.095 10.1143C171.71 10.1143 174.018 10.547 176.012 11.4124C178.008 12.2778 179.553 13.5034 180.65 15.0863C181.748 16.6692 182.294 18.5033 182.294 20.5915C182.294 22.6797 181.742 24.4692 180.639 26.0521C179.536 27.635 177.986 28.8605 175.99 29.726C173.993 30.5914 171.696 31.0241 169.095 31.0241C166.495 31.0241 164.173 30.5914 162.179 29.726C160.182 28.8605 158.638 27.6406 157.541 26.0632C156.443 24.4887 155.897 22.663 155.897 20.5915C155.897 18.5201 156.446 16.6692 157.541 15.0863ZM179.224 33.598V39.2345H158.966V33.598H179.224ZM166.332 23.2101C166.975 23.8327 167.896 24.1426 169.095 24.1426C170.295 24.1426 171.216 23.8327 171.859 23.2101C172.501 22.5876 172.824 21.7166 172.824 20.5915C172.824 19.4665 172.498 18.5508 171.847 17.9282C171.197 17.3057 170.278 16.9958 169.095 16.9958C167.912 16.9958 166.975 17.3057 166.332 17.9282C165.69 18.5508 165.367 19.4385 165.367 20.5915C165.367 21.7445 165.69 22.5904 166.332 23.2101Z" fill="#FCE000"/>
<path d="M208 43.3134H196.776V19.5588L187.188 21.2589V12.4455L199.694 9.7627H208.003V43.3134H208Z" fill="#FCE000"/>
<path d="M71.5996 1.73096V3.15846H70.0155V6.07613H68.0529V3.15846H66.4688V1.73096H71.6016H71.5996Z" fill="#050505"/>
<path d="M73.2008 5.9213C72.7623 5.72744 72.4178 5.4533 72.1675 5.10083C71.9171 4.74836 71.793 4.34302 71.793 3.8848C71.793 3.42659 71.9151 3.03888 72.1575 2.69032C72.4018 2.34177 72.7342 2.0735 73.1588 1.8816C73.5834 1.6897 74.058 1.59375 74.5827 1.59375C75.1074 1.59375 75.594 1.70341 75.9846 1.92468C76.3751 2.14595 76.6735 2.45926 76.8797 2.86656C77.086 3.27386 77.1882 3.75361 77.1882 4.30777H73.7996C73.9999 4.71115 74.4765 4.91284 75.2255 4.91284C75.556 4.91284 75.8784 4.87172 76.1948 4.78752C76.5113 4.70528 76.8077 4.58387 77.08 4.42918V5.51792C76.7556 5.7431 76.3831 5.91347 75.9645 6.03291C75.546 6.15236 75.1194 6.21306 74.6828 6.21306C74.1341 6.21306 73.6394 6.11516 73.2008 5.9213ZM75.4518 3.42268C75.3858 3.22294 75.2796 3.07217 75.1374 2.97034C74.9952 2.86852 74.817 2.8176 74.6067 2.8176C74.3964 2.8176 74.2042 2.87243 74.058 2.98013C73.9118 3.08783 73.8077 3.23665 73.7496 3.42268H75.4538H75.4518Z" fill="#050505"/>
<path d="M78.9066 3.88494L77.1943 1.73096H79.3431L80.1783 2.75508L81.0054 1.73096H83.1462L81.3839 3.86536L83.2624 6.07613H81.0434L80.1462 4.98347L79.265 6.07613H77.0781L78.9066 3.88494Z" fill="#050505"/>
<path d="M85.4665 1.73096V3.13692H87.1207V1.73096H89.0833V6.07613H87.1207V4.54876H85.4665V6.07613H83.5039V1.73096H85.4665Z" fill="#050505"/>
<path d="M89.8281 1.73096H91.7607V4.27462L93.2607 1.73096H95.7721V6.07613H93.8395V3.41302L92.2634 6.07613H89.8281V1.73096Z" fill="#050505"/>
<path d="M96.5156 1.73096H98.4782V3.74787L100.148 1.73096H102.165L100.647 3.40911L102.273 6.07613H100.094L99.3754 4.81115L98.2319 6.07613H96.5156V1.73096Z" fill="#050505"/>
<path d="M106.106 5.32406C105.898 5.60799 105.641 5.82731 105.337 5.982C105.032 6.13474 104.694 6.21306 104.32 6.21306C103.889 6.21306 103.508 6.11711 103.18 5.92521C102.85 5.73331 102.595 5.46309 102.413 5.11453C102.231 4.76598 102.141 4.3626 102.141 3.90634C102.141 3.45009 102.231 3.04279 102.413 2.69424C102.595 2.34373 102.85 2.0735 103.18 1.8816C103.51 1.6897 103.889 1.59375 104.32 1.59375C104.694 1.59375 105.032 1.67012 105.337 1.8209C105.641 1.97168 105.898 2.18903 106.104 2.47101L106.212 1.73082H108.253L107.944 3.90047L108.253 6.07795H106.212L106.104 5.32602L106.106 5.32406ZM104.225 4.34889C104.295 4.48009 104.396 4.58191 104.522 4.65632C104.648 4.73073 104.792 4.76794 104.954 4.76794C105.117 4.76794 105.287 4.73073 105.447 4.65436C105.607 4.578 105.749 4.47617 105.868 4.34497C105.988 4.21378 106.072 4.06887 106.12 3.90634C106.072 3.74186 105.986 3.595 105.868 3.46184C105.747 3.32869 105.607 3.2249 105.447 3.15049C105.287 3.07412 105.123 3.03692 104.954 3.03692C104.786 3.03692 104.648 3.07412 104.522 3.15049C104.396 3.22686 104.297 3.33064 104.225 3.46184C104.155 3.595 104.119 3.74186 104.119 3.90634C104.119 4.07083 104.155 4.21769 104.225 4.34889Z" fill="#050505"/>
<path d="M111.085 2.69824V4.19428H108.906V2.69824H111.085Z" fill="#050505"/>
<path d="M113.123 5.8745C112.662 5.64931 112.312 5.3223 112.071 4.89346C111.831 4.46462 111.711 3.94962 111.711 3.34846C111.711 2.74731 111.829 2.24014 112.063 1.80739C112.298 1.37463 112.642 1.03195 113.095 0.781308C113.547 0.530663 114.1 0.377926 114.749 0.325056C115.306 0.281976 115.728 0.244771 116.019 0.215398C116.309 0.186026 116.537 0.154695 116.708 0.123364C116.876 0.0920338 117.04 0.0509123 117.2 0V1.54108C116.994 1.60961 116.74 1.66053 116.435 1.69577C116.131 1.73102 115.694 1.75843 115.121 1.77606C114.525 1.79564 114.082 1.919 113.796 2.14223C113.509 2.36742 113.353 2.70423 113.325 3.15461C113.417 2.95487 113.565 2.7806 113.768 2.63178C113.97 2.481 114.212 2.36547 114.493 2.28518C114.773 2.20294 115.071 2.16182 115.386 2.16182C115.826 2.16182 116.215 2.2421 116.553 2.40267C116.892 2.56324 117.152 2.79235 117.34 3.08607C117.527 3.38175 117.621 3.72052 117.621 4.10236C117.621 4.52337 117.505 4.89346 117.27 5.21068C117.038 5.52986 116.708 5.77463 116.279 5.94891C115.85 6.12319 115.356 6.20935 114.791 6.20935C114.142 6.20935 113.587 6.09577 113.127 5.87058L113.123 5.8745ZM113.946 4.46266C114.056 4.57428 114.188 4.66044 114.342 4.72114C114.497 4.7838 114.661 4.81317 114.833 4.81317C115.081 4.81317 115.276 4.75247 115.42 4.62911C115.564 4.5077 115.636 4.34126 115.636 4.13173C115.636 3.92221 115.564 3.75772 115.42 3.63436C115.276 3.51295 115.079 3.45029 114.833 3.45029C114.599 3.45029 114.381 3.50708 114.18 3.62261C113.98 3.73814 113.826 3.89088 113.72 4.08474C113.762 4.22377 113.836 4.34713 113.946 4.45875V4.46266Z" fill="#050505"/>
<path d="M122.92 1.73096V3.15846H121.336V6.07613H119.373V3.15846H117.789V1.73096H122.922H122.92Z" fill="#050505"/>
<path d="M123.07 6.02938C122.909 5.93735 122.781 5.81203 122.687 5.65537C122.593 5.49872 122.547 5.32444 122.547 5.13254C122.547 4.94064 122.593 4.76637 122.687 4.60971C122.781 4.45306 122.909 4.32774 123.07 4.2357C123.23 4.14367 123.408 4.09863 123.604 4.09863C123.801 4.09863 123.979 4.14367 124.139 4.2357C124.299 4.32774 124.427 4.45306 124.522 4.60971C124.616 4.76637 124.662 4.9426 124.662 5.13254C124.662 5.32249 124.614 5.49872 124.522 5.65537C124.427 5.81203 124.299 5.93735 124.139 6.02938C123.979 6.12142 123.799 6.16646 123.604 6.16646C123.41 6.16646 123.23 6.12142 123.07 6.02938Z" fill="#050505"/>
<path d="M127.205 1.73082V2.39268C127.411 2.13616 127.661 1.93838 127.954 1.80131C128.248 1.66424 128.573 1.5957 128.927 1.5957C129.358 1.5957 129.738 1.69165 130.067 1.88355C130.397 2.07545 130.651 2.34568 130.834 2.69619C131.016 3.0467 131.106 3.45009 131.106 3.9083C131.106 4.36651 131.016 4.76597 130.834 5.11649C130.651 5.46504 130.397 5.73527 130.067 5.92717C129.736 6.11907 129.358 6.21502 128.927 6.21502C128.569 6.21502 128.244 6.14452 127.952 6.00549C127.659 5.86646 127.411 5.66673 127.205 5.4063V7.3253H125.242V1.73082H127.205ZM127.381 4.34497C127.501 4.47617 127.641 4.57995 127.802 4.65436C127.962 4.73073 128.126 4.76793 128.294 4.76793C128.462 4.76793 128.601 4.73073 128.727 4.65632C128.853 4.58191 128.951 4.48008 129.023 4.34889C129.093 4.21769 129.129 4.07083 129.129 3.90634C129.129 3.74185 129.093 3.59499 129.023 3.46184C128.953 3.32868 128.853 3.2249 128.727 3.15049C128.601 3.07412 128.456 3.03691 128.294 3.03691C128.132 3.03691 127.962 3.07412 127.802 3.15049C127.641 3.22686 127.499 3.33064 127.381 3.46184C127.261 3.59499 127.177 3.74185 127.129 3.90634C127.177 4.06691 127.263 4.21377 127.381 4.34497Z" fill="#050505"/>
<path d="M135.35 5.40437C135.152 5.6648 134.912 5.86258 134.627 6.00357C134.345 6.1426 134.026 6.21309 133.672 6.21309C133.247 6.21309 132.873 6.11714 132.55 5.92524C132.228 5.73334 131.98 5.46311 131.803 5.11456C131.627 4.76601 131.539 4.36262 131.539 3.90637C131.539 3.45012 131.627 3.04282 131.803 2.69426C131.98 2.34375 132.23 2.07353 132.55 1.88163C132.873 1.68973 133.245 1.59378 133.672 1.59378C134.022 1.59378 134.339 1.66231 134.625 1.79938C134.91 1.93645 135.152 2.13423 135.35 2.39075V0.256348H137.283V2.39271C137.481 2.13619 137.723 1.93841 138.008 1.80134C138.292 1.66427 138.61 1.59573 138.961 1.59573C139.386 1.59573 139.76 1.69168 140.082 1.88358C140.405 2.07548 140.653 2.34571 140.829 2.69622C141.006 3.04673 141.094 3.45012 141.094 3.90833C141.094 4.36654 141.006 4.766 140.829 5.11652C140.653 5.46507 140.403 5.7353 140.08 5.9272C139.758 6.1191 139.384 6.21505 138.961 6.21505C138.608 6.21505 138.29 6.14455 138.006 6.00552C137.721 5.86649 137.481 5.66676 137.283 5.40633V7.32533H135.35V5.40633V5.40437ZM133.616 4.35087C133.682 4.48207 133.774 4.5839 133.892 4.65831C134.01 4.73272 134.149 4.76992 134.305 4.76992C134.461 4.76992 134.625 4.73272 134.779 4.65635C134.934 4.57998 135.068 4.47815 135.182 4.34696C135.296 4.21576 135.376 4.07086 135.426 3.90833C135.378 3.74384 135.296 3.59698 135.182 3.46382C135.068 3.33067 134.934 3.22689 134.779 3.15248C134.625 3.07611 134.467 3.0389 134.305 3.0389C134.143 3.0389 134.01 3.07611 133.892 3.15052C133.774 3.22493 133.682 3.32871 133.616 3.45991C133.55 3.59306 133.518 3.74188 133.518 3.90833C133.518 4.07477 133.55 4.21968 133.616 4.35087ZM137.447 4.34696C137.561 4.47815 137.693 4.58194 137.849 4.65635C138.004 4.73272 138.162 4.76992 138.324 4.76992C138.486 4.76992 138.619 4.73272 138.739 4.65831C138.857 4.5839 138.949 4.48207 139.015 4.35087C139.081 4.21968 139.113 4.07281 139.113 3.90833C139.113 3.74384 139.081 3.59306 139.015 3.45991C138.949 3.32675 138.857 3.22493 138.739 3.15052C138.621 3.07611 138.482 3.0389 138.324 3.0389C138.166 3.0389 138.004 3.07611 137.849 3.15248C137.695 3.22884 137.561 3.33263 137.447 3.46382C137.333 3.59698 137.253 3.74384 137.203 3.90833C137.251 4.0689 137.333 4.21576 137.447 4.34696Z" fill="#050505"/>
</g>
<defs>
<clipPath id="clip0_2002_6121">
<rect width="208" height="44" fill="white"/>
</clipPath>
</defs>
</svg>
