<svg width="18" height="18" viewBox="0 0 18 18" fill="none" xmlns="http://www.w3.org/2000/svg">
<path d="M7.01797 4.602C7.89697 3.0345 8.33722 2.25 8.99947 2.25C9.66172 2.25 10.102 3.03375 10.9817 4.602C11.176 4.9485 11.3447 5.3805 11.6755 5.6175C11.9905 5.844 12.43 5.8665 12.802 5.934C14.569 6.25575 15.4525 6.41625 15.6835 7.02675C15.7005 7.07175 15.7147 7.11725 15.7262 7.16325C15.8822 7.7985 15.2522 8.349 13.9892 9.648C13.594 10.0538 13.4147 10.2465 13.3352 10.5097C13.2625 10.7535 13.2977 11.0175 13.3682 11.5455C13.6105 13.3605 13.7297 14.367 13.2107 14.778C12.2807 15.513 10.7807 14.2215 9.94147 13.8337C9.47797 13.62 9.24697 13.5 8.99947 13.5C8.75197 13.5 8.52097 13.62 8.05747 13.8337C7.21747 14.2215 5.71822 15.5137 4.78897 14.7772C4.26922 14.367 4.39297 13.3605 4.63522 11.5455C4.70572 11.0175 4.74022 10.7535 4.66747 10.5097C4.58872 10.2465 4.40872 10.0545 4.01347 9.64725C2.75047 8.34975 2.11672 7.7985 2.27347 7.16325C2.28397 7.11675 2.29797 7.07125 2.31547 7.02675C2.54647 6.41625 3.42997 6.25575 5.19697 5.934C5.56897 5.8665 6.00922 5.844 6.32347 5.6175C6.65422 5.3805 6.82297 4.94775 7.01797 4.602Z" fill="#FA8900"/>
</svg>
