<svg width="18" height="18" viewBox="0 0 16 16" fill="none" xmlns="http://www.w3.org/2000/svg">
<path d="M6.23869 4.09067C7.02002 2.69733 7.41135 2 8.00002 2C8.58869 2 8.98002 2.69667 9.76202 4.09067C9.93469 4.39867 10.0847 4.78267 10.3787 4.99333C10.6587 5.19467 11.0494 5.21467 11.38 5.27467C12.9507 5.56067 13.736 5.70333 13.9414 6.246C13.9565 6.286 13.9691 6.32644 13.9794 6.36733C14.118 6.932 13.558 7.42133 12.4354 8.576C12.084 8.93667 11.9247 9.108 11.854 9.342C11.7894 9.55867 11.8207 9.79333 11.8834 10.2627C12.0987 11.876 12.2047 12.7707 11.7434 13.136C10.9167 13.7893 9.58335 12.6413 8.83735 12.2967C8.42535 12.1067 8.22002 12 8.00002 12C7.78002 12 7.57469 12.1067 7.16269 12.2967C6.41602 12.6413 5.08335 13.79 4.25735 13.1353C3.79535 12.7707 3.90535 11.876 4.12069 10.2627C4.18335 9.79333 4.21402 9.55867 4.14935 9.342C4.07935 9.108 3.91935 8.93733 3.56802 8.57533C2.44535 7.422 1.88202 6.932 2.02135 6.36733C2.03069 6.326 2.04313 6.28556 2.05869 6.246C2.26402 5.70333 3.04935 5.56067 4.62002 5.27467C4.95069 5.21467 5.34202 5.19467 5.62135 4.99333C5.91535 4.78267 6.06535 4.398 6.23869 4.09067Z" fill="#DCDCDC"/>
</svg>
